<?xml version="1.0" encoding="utf-8"?>
<!-- Generator: Adobe Illustrator 19.1.1, SVG Export Plug-In . SVG Version: 6.00 Build 0)  -->
<svg version="1.1" id="Layer_1" xmlns="http://www.w3.org/2000/svg" xmlns:xlink="http://www.w3.org/1999/xlink" x="0px" y="0px"
	 viewBox="-158 81.4 113.5 38" style="enable-background:new -158 81.4 113.5 38;" xml:space="preserve">
<style type="text/css">
	.st0{fill:#FFFFFF;}
</style>
<title>logo_name</title>
<path class="st0" d="M-111.2,109.7c0.2,0,0.4,0,0.6-0.1v1.4c-0.4,0.1-0.8,0.2-1.2,0.2c-0.7,0.1-1.4-0.3-1.8-1
	c-0.9,0.8-2.1,1.2-3.3,1.1c-1.6,0-3.1-0.9-3.1-2.7c0-2.2,2.1-2.9,3.9-2.9c0.8,0,1.5,0.1,2.3,0.3v-0.3c0-1.1-0.8-1.9-2.3-1.9
	c-1.1,0-2.2,0.2-3.1,0.7v-1.8c1.1-0.4,2.2-0.6,3.4-0.6c2.5,0,4,1.2,4,3.8v3.1c0,0.3,0.2,0.6,0.5,0.6
	C-111.3,109.7-111.2,109.7-111.2,109.7z M-117.9,108.5c0.1,0.8,0.7,1.4,1.5,1.3c0,0,0.1,0,0.1,0c0.9,0,1.9-0.3,2.5-1v-1.5
	c-0.6-0.1-1.3-0.2-1.9-0.2C-116.8,107-117.9,107.4-117.9,108.5L-117.9,108.5z"/>
<path class="st0" d="M-104.9,102.1c0.9,0,1.9,0.2,2.7,0.7v1.8c-0.7-0.5-1.6-0.7-2.4-0.7c-1.6-0.1-3,1-3.1,2.6s1,3,2.6,3.1
	c0.2,0,0.3,0,0.5,0c0.9,0,1.8-0.2,2.5-0.7v1.8c-0.9,0.4-1.9,0.6-2.9,0.6c-2.4,0.2-4.5-1.7-4.7-4.1c0-0.1,0-0.3,0-0.4
	c-0.1-2.5,1.9-4.6,4.4-4.7C-105.2,102-105.1,102-104.9,102.1z"/>
<path class="st0" d="M-92.2,109.7c0.2,0,0.4,0,0.6-0.1v1.4c-0.4,0.1-0.8,0.2-1.2,0.2c-0.7,0.1-1.4-0.3-1.8-1
	c-0.9,0.8-2.1,1.2-3.3,1.1c-1.6,0-3.1-0.9-3.1-2.7c0-2.2,2.1-2.9,3.9-2.9c0.8,0,1.5,0.1,2.3,0.3v-0.3c0-1.1-0.8-1.9-2.3-1.9
	c-1.1,0-2.2,0.2-3.1,0.7v-1.8c1.1-0.4,2.2-0.6,3.4-0.6c2.5,0,4,1.2,4,3.8v3.1c0,0.3,0.2,0.6,0.5,0.6
	C-92.3,109.7-92.2,109.7-92.2,109.7z M-98.9,108.5c0.1,0.8,0.7,1.4,1.5,1.3c0,0,0.1,0,0.1,0c0.9,0,1.9-0.3,2.5-1v-1.5
	c-0.6-0.1-1.3-0.2-1.9-0.2C-97.8,107-98.9,107.4-98.9,108.5L-98.9,108.5z"/>
<path class="st0" d="M-81.3,98.3V111h-1.8v-1.4c-0.8,1-2,1.7-3.4,1.6c-2.5-0.2-4.5-2.4-4.3-4.9c0.2-2.3,2-4.2,4.3-4.3
	c1.2,0,2.4,0.5,3.1,1.4v-5.1L-81.3,98.3L-81.3,98.3z M-86.1,103.8c-1.6,0-2.9,1.3-2.9,2.9c0,1.6,1.3,2.9,2.9,2.9
	c1.2,0,2.3-0.7,2.8-1.8v-2.1C-83.8,104.5-84.9,103.8-86.1,103.8z"/>
<path class="st0" d="M-75,102.1c3.5,0,4.7,2.8,4.1,5.3h-6.6c0.2,1.6,1.8,2.2,3.4,2.2c1,0,1.9-0.2,2.8-0.6v1.7
	c-1,0.4-2.1,0.6-3.1,0.6c-2.7,0-5-1.5-5-4.6c-0.1-2.4,1.7-4.5,4.2-4.6C-75.2,102-75.1,102-75,102.1z M-74.9,103.7
	c-1.3-0.1-2.5,0.9-2.6,2.2c0,0,0,0,0,0.1h4.9c0.1-1.1-0.7-2.1-1.8-2.3C-74.6,103.7-74.8,103.7-74.9,103.7L-74.9,103.7z"/>
<path class="st0" d="M-68.9,111v-8.8h1.7v1.1c0.7-0.8,1.8-1.3,2.9-1.3c1.1-0.1,2.1,0.5,2.7,1.4c0.8-0.9,1.9-1.4,3.1-1.4
	c1.8-0.1,3.3,1.3,3.3,3.1c0,0.1,0,0.3,0,0.4v5.5h-2v-5.4c0.1-0.9-0.6-1.7-1.5-1.8c-0.1,0-0.2,0-0.2,0c-0.9,0.1-1.7,0.5-2.2,1.2
	c0,0.2,0,0.4,0,0.6v5.5h-2v-5.4c0.1-0.9-0.6-1.7-1.5-1.8c-0.1,0-0.2,0-0.2,0c-0.9,0.1-1.8,0.6-2.3,1.4v5.9h-2L-68.9,111z"/>
<path class="st0" d="M-46.5,102.3h2l-4.1,9.9c-1,2.3-2.2,3-3.5,3c-0.4,0-0.8-0.1-1.1-0.1v-1.7c0.3,0.1,0.6,0.1,0.9,0.1
	c1,0,1.7-0.7,2.2-2l0.2-0.4l-4.2-8.8h2.1l3,6.6L-46.5,102.3z"/>
<path class="st0" d="M-117.3,83v5c0.7-0.8,1.8-1.2,2.8-1.2c1.9-0.1,3.5,1.3,3.6,3.2c0,0.1,0,0.2,0,0.4v5.4h-2v-5.2
	c0.1-1-0.6-2-1.7-2.1c-0.1,0-0.2,0-0.3,0c-1,0.1-1.9,0.6-2.4,1.5v5.8h-2V83H-117.3L-117.3,83z"/>
<path class="st0" d="M-105.6,83.8V87h3.2v1.7h-3.2v4c0,1.1,0.5,1.5,1.7,1.5c0.6,0,1.2-0.1,1.8-0.4v1.7c-0.8,0.3-1.6,0.4-2.4,0.4
	c-1.5,0.2-2.8-0.9-3-2.3c0-0.2,0-0.4,0-0.5v-4.4h-1.6v-1.7h1.6v-2.6L-105.6,83.8z"/>
<path class="st0" d="M-99.9,95.7V87h1.7v1.1c0.7-0.8,1.8-1.3,2.9-1.3c1.1-0.1,2.1,0.5,2.7,1.4c0.8-0.9,1.9-1.4,3.1-1.4
	c1.8-0.1,3.3,1.3,3.3,3.1c0,0.1,0,0.3,0,0.4v5.5h-2v-5.4c0.1-0.9-0.6-1.7-1.5-1.8c-0.1,0-0.2,0-0.2,0c-0.9,0.1-1.7,0.5-2.2,1.2
	c0,0.2,0,0.4,0,0.6v5.5h-2v-5.4c0.1-0.9-0.6-1.7-1.5-1.8c-0.1,0-0.2,0-0.2,0c-0.9,0.1-1.8,0.6-2.3,1.4v5.9h-2L-99.9,95.7z"/>
<rect x="-83.3" y="83" class="st0" width="1.9" height="12.8"/>
<path class="st0" d="M-142.6,81.4h-0.2l-15.3,1.6v28l15.3,9.1l15.3-9.1v-28L-142.6,81.4z M-129.4,109.9l-13.3,7.9l-13.3-7.9V98.4
	l13.2,7.9v1.4l-9.1-5.4v1.4l9.1,5.5v1.5l-9.1-5.4v1.4l9.1,5.5l0,0l9.2-5.5v-1.4l0,0v-4.5l4.1-2.5L-129.4,109.9L-129.4,109.9z
	 M-129.4,96.7l-3.6,2.1l0,0l-1.7,1l-8-4.8v1.4l6.8,4.1h-0.1l-0.1,0.1l-1,0.6l-5.6-3.4v1.4l4.5,2.6l-1,0.7l0,0l-3.4-2v1.4l2.2,1.3
	l-2.3,1.4l-13.2-7.8l13.2-7.9l0,0L-129.4,96.7z M-129.4,95.3l-13.4-7.9l0,0l-13.2,7.9V84.8l13.3-1.4l13.3,1.4L-129.4,95.3
	L-129.4,95.3z"/>
</svg>
